<svg width="1979" height="586" viewBox="0 0 1979 586" fill="none" xmlns="http://www.w3.org/2000/svg">
<path d="M946.568 147.091L898.273 438H832.364L752.818 285.159H751.114L725.545 438H646.568L694.864 147.091H761.909L840.318 299.364H842.591L867.591 147.091H946.568ZM915.631 438L963.926 147.091H1173.59L1162.79 210.727H1032.11L1024.15 260.727H1144.04L1133.24 324.364H1013.36L1005.4 374.364H1135.52L1124.72 438H915.631ZM1274 147.091L1307.53 231.75H1309.8L1372.3 147.091H1463.78L1352.98 292.545L1418.89 438H1330.82L1295.6 351.636H1293.32L1229.69 438H1137.64L1251.28 292.545L1188.78 147.091H1274ZM1715.12 297.659C1709.82 329.288 1699.3 355.803 1683.59 377.205C1667.87 398.606 1648.78 414.752 1626.34 425.642C1603.9 436.532 1579.89 441.977 1554.32 441.977C1527.05 441.977 1503.38 436.059 1483.3 424.222C1463.23 412.384 1448.59 395.055 1439.41 372.233C1430.22 349.411 1428.38 321.523 1433.87 288.568C1438.98 256.939 1449.4 230.33 1465.12 208.739C1480.84 187.148 1500.02 170.812 1522.65 159.733C1545.28 148.653 1569.48 143.114 1595.23 143.114C1622.32 143.114 1645.85 149.08 1665.83 161.011C1685.91 172.943 1700.49 190.415 1709.58 213.426C1718.77 236.437 1720.61 264.515 1715.12 297.659ZM1635.57 288.568C1638.23 271.902 1638.41 257.886 1636.14 246.523C1633.87 235.064 1629.09 226.447 1621.8 220.67C1614.5 214.799 1604.7 211.864 1592.39 211.864C1578.38 211.864 1565.97 215.273 1555.18 222.091C1544.38 228.909 1535.43 238.71 1528.33 251.494C1521.23 264.278 1516.26 279.667 1513.41 297.659C1510.38 314.515 1510.1 328.53 1512.56 339.705C1515.12 350.879 1520.14 359.259 1527.62 364.847C1535.2 370.434 1545.04 373.227 1557.16 373.227C1570.99 373.227 1583.21 369.913 1593.81 363.284C1604.51 356.655 1613.37 347.044 1620.38 334.449C1627.48 321.854 1632.54 306.561 1635.57 288.568ZM1708.37 438L1756.66 147.091H1882.23C1903.82 147.091 1922.05 151.021 1936.92 158.881C1951.78 166.741 1962.48 178.057 1969.02 192.83C1975.55 207.602 1977.12 225.311 1973.71 245.955C1970.3 266.788 1962.77 284.354 1951.12 298.653C1939.57 312.858 1924.84 323.653 1906.94 331.04C1889.14 338.331 1869.16 341.977 1847 341.977H1772L1782.23 280.614H1841.32C1850.6 280.614 1858.74 279.477 1865.75 277.205C1872.76 274.837 1878.44 271.144 1882.8 266.125C1887.15 261.011 1889.99 254.288 1891.32 245.955C1892.65 237.621 1891.98 230.85 1889.33 225.642C1886.68 220.339 1882.28 216.456 1876.12 213.994C1869.97 211.437 1862.34 210.159 1853.25 210.159H1825.41L1787.34 438H1708.37ZM1900.98 304.477L1951.55 438H1865.75L1816.89 304.477H1900.98Z" fill="white"/>
<g filter="url(#filter0_d_2_3)">
<rect x="20" y="20" width="546" height="546" rx="130" fill="#A855F7"/>
</g>
<path d="M464.647 291.247L292 118.6L119.353 291.247L292 463.894L464.647 291.247Z" fill="white" fill-opacity="0.05" stroke="white" stroke-opacity="0.2" stroke-width="0.24"/>
<path d="M169.92 170.92L414.08 415.08" stroke="url(#paint0_linear_2_3)" stroke-width="30" stroke-linecap="round"/>
<path d="M414.08 170.92L326.88 258.12" stroke="url(#paint1_linear_2_3)" stroke-width="30" stroke-linecap="round"/>
<path d="M257.12 327.88L169.92 415.08" stroke="url(#paint2_linear_2_3)" stroke-width="30" stroke-linecap="round"/>
<path d="M292 319.16C306.448 319.16 318.16 307.448 318.16 293C318.16 278.552 306.448 266.84 292 266.84C277.552 266.84 265.84 278.552 265.84 293C265.84 307.448 277.552 319.16 292 319.16Z" fill="white"/>
<defs>
<filter id="filter0_d_2_3" x="0" y="0" width="586" height="586" filterUnits="userSpaceOnUse" color-interpolation-filters="sRGB">
<feFlood flood-opacity="0" result="BackgroundImageFix"/>
<feColorMatrix in="SourceAlpha" type="matrix" values="0 0 0 0 0 0 0 0 0 0 0 0 0 0 0 0 0 0 127 0" result="hardAlpha"/>
<feOffset/>
<feGaussianBlur stdDeviation="10"/>
<feComposite in2="hardAlpha" operator="out"/>
<feColorMatrix type="matrix" values="0 0 0 0 0.658824 0 0 0 0 0.333333 0 0 0 0 0.968627 0 0 0 0.5 0"/>
<feBlend mode="normal" in2="BackgroundImageFix" result="effect1_dropShadow_2_3"/>
<feBlend mode="normal" in="SourceGraphic" in2="effect1_dropShadow_2_3" result="shape"/>
</filter>
<linearGradient id="paint0_linear_2_3" x1="169.92" y1="170.92" x2="414.08" y2="415.08" gradientUnits="userSpaceOnUse">
<stop stop-color="#A855F7"/>
<stop offset="1" stop-color="#D8B4FE"/>
</linearGradient>
<linearGradient id="paint1_linear_2_3" x1="326.88" y1="170.92" x2="414.08" y2="258.12" gradientUnits="userSpaceOnUse">
<stop stop-color="#A855F7"/>
<stop offset="1" stop-color="#D8B4FE"/>
</linearGradient>
<linearGradient id="paint2_linear_2_3" x1="169.92" y1="327.88" x2="257.12" y2="415.08" gradientUnits="userSpaceOnUse">
<stop stop-color="#A855F7"/>
<stop offset="1" stop-color="#D8B4FE"/>
</linearGradient>
</defs>
</svg>
